
    <svg width="600" height="600" viewBox="0 0 600 600" fill="none" xmlns="http://www.w3.org/2000/svg">
      <path d="M400.711 28.3019C419.851 35.4689 437.744 44.2017 454.764 54.8798C474.027 66.9658 491.59 81.0922 507.604 97.1567C523.971 113.575 537.962 131.923 549.883 151.762C561.353 170.85 570.483 191.062 577.11 212.376C582.186 228.7 586.706 245.153 587.962 262.272C589.18 278.872 591.354 295.554 590.708 312.106C589.505 342.978 583.672 373.114 572.53 402.197C564.046 424.345 553.301 445.15 540.07 464.778C526.81 484.449 511.053 502.001 493.493 517.747C472.664 536.424 449.408 551.801 423.913 563.519C402.631 573.301 380.696 581.328 357.449 584.931C343.565 587.083 329.557 588.488 315.575 589.94C308.851 590.638 302.032 591.211 295.3 590.903C269.636 589.729 244.283 586.576 219.537 579.099C201.291 573.586 183.624 566.778 166.778 557.921C149.294 548.728 133.087 537.654 117.549 525.378C106.609 516.735 97.0489 506.806 87.5704 496.824C72.365 480.813 59.6041 462.903 48.7553 443.565C37.8885 424.195 28.7594 404.125 23.0735 382.693C19.3346 368.6 16.1276 354.253 14.2214 339.817C12.1993 324.503 10.9587 308.93 11.2417 293.504C11.6736 269.968 15.1019 246.725 21.4285 223.892C26.7419 204.716 33.8588 186.32 42.8396 168.657C52.684 149.296 64.3951 131.079 78.8101 114.748C86.4619 106.079 93.9512 97.1692 102.4 89.3222C119.418 73.517 137.958 59.6474 158.29 48.2361C175.341 38.666 193.07 30.6999 211.679 24.7355C229.36 19.0685 247.329 14.3613 265.897 13.1119C283.88 11.9018 301.974 10.5546 319.935 11.295C340.263 12.133 360.402 15.8049 380.034 21.5419C386.87 23.5399 393.606 25.8823 400.711 28.3019ZM385.654 75.9269C384.443 75.46 383.212 75.0373 382.023 74.5196C360.749 65.2569 338.212 61.9158 315.307 61.1445C301.741 60.6877 288.108 61.3444 274.54 62.1152C265.749 62.6145 256.861 63.5228 248.299 65.4811C230.41 69.5726 213.443 76.4278 196.96 84.495C177.98 93.7846 160.171 104.657 144.326 118.909C129.759 132.012 115.783 145.711 105.002 161.936C95.5171 176.211 87.7294 191.701 80.1033 207.105C66.9303 233.715 61.634 262.348 61.1491 291.812C60.9324 304.987 62.112 318.203 63.0754 331.37C63.6828 339.673 63.9762 348.245 66.3349 356.12C70.5542 370.207 75.428 384.219 81.4788 397.606C90.6125 417.815 101.522 436.992 116.2 454.042C128.747 468.618 142.22 482.155 157.494 493.576C179.747 510.216 204.744 521.922 230.978 531.125C251.174 538.211 272.181 539.761 293.181 540.775C305.144 541.353 317.237 539.922 329.232 538.921C337.844 538.202 346.539 537.343 354.936 535.414C374.31 530.964 392.396 522.862 410.24 514.293C426.028 506.711 440.505 497.206 453.924 485.814C468.937 473.071 482.346 458.982 494.26 443.37C506.179 427.751 514.678 410.246 522.905 392.535C535.366 365.707 540.349 337.283 540.845 308.031C541.08 294.192 540.101 280.285 538.84 266.484C538.031 257.629 536.456 248.687 533.915 240.175C526.582 215.606 516.748 192.268 502.229 170.728C488.077 149.732 471.317 131.389 452.325 115.028C432.751 98.164 409.396 87.3411 385.654 75.9269Z" fill="#FFFFFF"/>
      <path d="M207.002 445.439C207 349.503 207.141 254.012 206.746 158.524C206.713 150.405 213.465 147.243 219.654 150.897C235.322 160.147 251.09 169.229 266.848 178.326C280.896 186.434 295.015 194.416 309.047 202.551C331.512 215.573 353.896 228.734 376.379 241.725C394.95 252.457 413.619 263.021 432.236 273.675C443.092 279.887 453.988 286.033 464.756 292.395C471.074 296.128 471.271 303.665 465.04 307.401C451.106 315.754 437.017 323.849 422.962 331.999C405.25 342.268 387.506 352.484 369.78 362.729C355.573 370.941 341.36 379.141 327.171 387.384C302.3 401.833 277.489 416.386 252.564 430.742C240.903 437.459 229.06 443.863 217.251 450.32C212.484 452.926 209.146 451.393 207.002 445.439Z" fill="#FFFFFF"/>
    </svg>
  